<?xml version="1.0" standalone="no"?>
<!DOCTYPE svg PUBLIC "-//W3C//DTD SVG 20010904//EN"
 "http://www.w3.org/TR/2001/REC-SVG-20010904/DTD/svg10.dtd">
<svg version="1.0" xmlns="http://www.w3.org/2000/svg"
 width="620.000000pt" height="139.000000pt" viewBox="0 0 620.000000 139.000000"
 preserveAspectRatio="xMidYMid meet">

<g transform="translate(0.000000,139.000000) scale(0.100000,-0.100000)"
fill="#000000" stroke="none">
<path d="M0 1160 c0 -178 3 -230 13 -229 6 0 35 46 62 102 67 136 158 272 203
302 23 16 51 25 74 25 l38 0 0 -469 0 -470 -23 -26 c-18 -22 -34 -27 -85 -32
-34 -3 -62 -10 -62 -14 0 -5 158 -9 350 -9 206 0 350 4 350 9 0 5 -28 12 -63
16 -78 8 -97 23 -108 77 -4 24 -8 240 -9 481 l0 437 45 0 c37 0 52 -6 84 -35
50 -46 128 -163 194 -292 29 -57 55 -103 59 -103 4 0 9 98 10 218 l3 217 40
-2 c78 -5 75 13 75 -493 0 -261 -4 -459 -10 -474 -6 -18 -19 -27 -45 -32 -84
-15 -20 -24 185 -24 121 0 220 4 220 8 0 4 -15 12 -32 17 -30 9 -34 14 -40 60
-3 28 -7 142 -7 255 -1 195 0 207 22 245 37 66 101 81 144 33 16 -18 18 -45
21 -293 3 -297 2 -305 -54 -305 -13 0 -24 -4 -24 -10 0 -6 82 -10 225 -10 143
0 225 4 225 10 0 6 -10 10 -23 10 -12 0 -32 7 -44 15 -21 15 -22 23 -25 263
-3 279 -6 288 -80 342 -112 81 -299 66 -363 -28 l-25 -37 0 238 0 237 -760 0
-760 0 0 -230z"/>
<path d="M1630 1375 c0 -13 98 -15 819 -15 732 0 821 -2 835 -16 14 -14 16
-74 16 -510 0 -272 3 -494 8 -494 4 0 21 23 37 52 46 79 54 80 119 21 74 -68
130 -87 245 -81 237 11 387 190 350 418 -13 85 -38 138 -88 193 -57 61 -122
88 -216 88 -80 0 -134 -17 -157 -50 -14 -20 -16 -17 -22 49 -3 38 -3 135 1
215 l6 145 -976 0 c-862 0 -977 -2 -977 -15z m2084 -386 c50 -23 61 -80 60
-309 0 -216 -8 -265 -47 -308 -45 -49 -111 -19 -138 63 -9 28 -13 107 -13 260
-1 191 2 224 17 252 28 52 69 66 121 42z"/>
<path d="M4090 1381 c0 -5 21 -13 47 -17 42 -8 49 -13 54 -39 9 -40 9 -893 0
-925 -5 -19 -16 -27 -49 -34 -23 -6 -42 -13 -42 -18 0 -4 106 -8 235 -8 129 0
235 4 235 8 0 5 -19 12 -42 18 -37 8 -44 14 -49 39 -4 17 -7 245 -8 508 l-1
477 -190 0 c-105 0 -190 -4 -190 -9z"/>
<path d="M2427 1029 c-114 -13 -241 -98 -287 -194 -46 -95 -45 -228 3 -324 29
-59 106 -125 175 -152 70 -27 195 -36 268 -20 94 21 194 105 232 194 19 45
-12 34 -33 -12 -67 -150 -262 -176 -344 -46 -32 51 -51 121 -51 190 l0 45 220
0 c121 0 220 1 220 3 0 28 -26 130 -41 159 -26 50 -85 107 -136 130 -53 23
-150 35 -226 27z m113 -44 c22 -23 39 -110 40 -202 l0 -43 -96 0 -97 0 5 98
c5 105 23 157 60 171 31 11 63 2 88 -24z"/>
<path d="M4925 1029 c-174 -20 -312 -160 -323 -327 -10 -146 66 -270 207 -335
108 -51 254 -49 362 4 56 28 138 107 167 163 23 45 27 63 27 146 0 81 -4 102
-25 145 -71 145 -233 224 -415 204z m131 -61 c9 -16 20 -73 26 -126 11 -109 3
-365 -14 -415 -36 -107 -132 -103 -169 8 -18 55 -18 434 1 490 23 71 63 100
113 83 15 -6 35 -24 43 -40z"/>
<path d="M5692 1028 c-132 -20 -222 -116 -222 -238 0 -63 21 -115 66 -161 l35
-36 -41 -18 c-81 -37 -119 -107 -107 -198 5 -34 16 -51 56 -90 28 -27 51 -50
51 -52 0 -1 -10 -5 -23 -9 -41 -10 -67 -43 -67 -85 0 -73 67 -111 230 -132
176 -22 373 28 443 111 76 89 51 244 -50 312 -59 41 -104 48 -300 48 -206 0
-236 6 -231 47 5 46 45 58 126 38 112 -28 214 -6 294 64 75 66 93 175 45 272
l-25 52 28 29 c35 35 66 38 55 6 -20 -62 -18 -85 10 -107 44 -34 102 -22 124
26 18 39 13 63 -19 95 -29 29 -34 30 -92 26 -53 -4 -65 -9 -89 -36 l-28 -32
-48 30 c-56 35 -142 49 -221 38z m99 -35 c17 -20 28 -188 19 -294 -8 -100 -25
-132 -69 -127 -48 6 -61 53 -61 219 0 82 5 160 11 178 17 48 70 61 100 24z
m247 -785 c30 -15 41 -62 22 -98 -45 -85 -371 -110 -512 -39 -57 29 -75 82
-44 125 12 16 31 20 138 25 169 9 364 2 396 -13z"/>
<path d="M210 115 l0 -95 2550 0 2550 0 0 95 0 95 -2550 0 -2550 0 0 -95z"/>
</g>
</svg>
